<svg width="24" height="24" viewBox="0 0 24 24" fill="none" xmlns="http://www.w3.org/2000/svg">
<g clip-path="url(#clip0_52_3449)">
<path d="M9 7.125L8.68828 7.43672C8.40703 7.71797 8.25 8.09766 8.25 8.49609V11.5992C8.25 11.85 8.37422 12.0844 8.58281 12.2227L8.83125 12.3867C9.16641 12.6117 9.59766 12.6375 9.95859 12.457L10.0336 12.4195C10.0945 12.3891 10.1508 12.3539 10.2047 12.3141L11.3625 11.4469C11.5172 11.3297 11.7305 11.3297 11.8852 11.4469C12.1242 11.6273 12.1172 11.9883 11.8687 12.157L8.86875 14.2031C8.48203 14.468 8.25 14.9062 8.25 15.375H15.75L16.4273 11.6484C16.4766 11.3836 16.5 11.1141 16.5 10.8445V10.5C16.5 8.01562 14.4844 6 12 6H8.71406C8.45859 6 8.25 6.20859 8.25 6.46406C8.25 6.63984 8.34844 6.79922 8.50547 6.87891L9 7.125ZM9.5625 8.71875C9.5625 8.59443 9.61189 8.4752 9.69979 8.38729C9.7877 8.29939 9.90693 8.25 10.0312 8.25C10.1556 8.25 10.2748 8.29939 10.3627 8.38729C10.4506 8.4752 10.5 8.59443 10.5 8.71875C10.5 8.84307 10.4506 8.9623 10.3627 9.05021C10.2748 9.13811 10.1556 9.1875 10.0312 9.1875C9.90693 9.1875 9.7877 9.13811 9.69979 9.05021C9.61189 8.9623 9.5625 8.84307 9.5625 8.71875ZM7.27969 17.0953C7.18125 17.1937 7.125 17.3297 7.125 17.4703C7.125 17.7633 7.36172 18 7.65469 18H16.3453C16.6383 18 16.875 17.7633 16.875 17.4703C16.875 17.3297 16.8187 17.1937 16.7203 17.0953L15.75 16.125H8.25L7.27969 17.0953Z" fill="black"/>
</g>
<defs>
<clipPath id="clip0_52_3449">
<rect width="24" height="24" fill="white"/>
</clipPath>
</defs>
</svg>
