<svg width="24" height="24" viewBox="0 0 24 24" fill="none" xmlns="http://www.w3.org/2000/svg">
<g clip-path="url(#clip0_52_3454)">
<path d="M7.5 10.5V7.125C7.5 6.91875 7.66875 6.75 7.875 6.75H9.375C9.58125 6.75 9.75 6.91875 9.75 7.125V8.0625C9.75 8.16563 9.83437 8.25 9.9375 8.25H10.6875C10.7906 8.25 10.875 8.16563 10.875 8.0625V7.125C10.875 6.91875 11.0437 6.75 11.25 6.75H12.75C12.9563 6.75 13.125 6.91875 13.125 7.125V8.0625C13.125 8.16563 13.2094 8.25 13.3125 8.25H14.0625C14.1656 8.25 14.25 8.16563 14.25 8.0625V7.125C14.25 6.91875 14.4187 6.75 14.625 6.75H16.125C16.3313 6.75 16.5 6.91875 16.5 7.125V10.5C16.5 10.7367 16.3898 10.9594 16.2 11.1L15 12L15.375 15.375H8.625L9 12L7.8 11.1C7.61016 10.9594 7.5 10.7367 7.5 10.5ZM11.625 12.75H12.375C12.5813 12.75 12.75 12.5813 12.75 12.375V11.25C12.75 10.8352 12.4148 10.5 12 10.5C11.5852 10.5 11.25 10.8352 11.25 11.25V12.375C11.25 12.5813 11.4187 12.75 11.625 12.75ZM7.27969 17.0953L8.25 16.125H15.75L16.7203 17.0953C16.8187 17.1937 16.875 17.3297 16.875 17.4703C16.875 17.7633 16.6383 18 16.3453 18H7.65469C7.36172 18 7.125 17.7633 7.125 17.4703C7.125 17.3297 7.18125 17.1937 7.27969 17.0953Z" fill="black"/>
</g>
<defs>
<clipPath id="clip0_52_3454">
<rect width="24" height="24" fill="white"/>
</clipPath>
</defs>
</svg>
