<svg width="24" height="24" viewBox="0 0 24 24" fill="none" xmlns="http://www.w3.org/2000/svg">
<g clip-path="url(#clip0_52_3459)">
<path d="M11.25 6C10.8352 6 10.5 6.33516 10.5 6.75C10.5 7.12734 10.7789 7.43906 11.1422 7.49297C10.0875 8.50312 8.4375 10.4531 8.4375 12.75C8.4375 13.8609 9.15937 14.4445 9.75 14.7352V15.375H14.25V14.7352C14.8406 14.4422 15.5625 13.8586 15.5625 12.75C15.5625 11.8758 15.3234 11.0531 14.9695 10.3102L12.6398 12.6398C12.4945 12.7852 12.2555 12.7852 12.1102 12.6398C11.9648 12.4945 11.9648 12.2555 12.1102 12.1102L14.5969 9.62344C14.0531 8.73047 13.3828 7.99453 12.8578 7.49297C13.2211 7.43906 13.5 7.12734 13.5 6.75C13.5 6.33516 13.1648 6 12.75 6H11.25ZM9.375 16.125L8.40469 17.0953C8.30625 17.1937 8.25 17.3297 8.25 17.4703C8.25 17.7633 8.48672 18 8.77969 18H15.2203C15.5133 18 15.75 17.7633 15.75 17.4703C15.75 17.3297 15.6937 17.1937 15.5953 17.0953L14.625 16.125H9.375Z" fill="black"/>
</g>
<defs>
<clipPath id="clip0_52_3459">
<rect width="24" height="24" fill="white"/>
</clipPath>
</defs>
</svg>
