<svg width="24" height="24" viewBox="0 0 24 24" fill="none" xmlns="http://www.w3.org/2000/svg">
<g clip-path="url(#clip0_52_3434)">
<g clip-path="url(#clip1_52_3434)">
<path d="M12 6C12.4148 6 12.75 6.33516 12.75 6.75V7.125H13.125C13.5398 7.125 13.875 7.46016 13.875 7.875C13.875 8.28984 13.5398 8.625 13.125 8.625H12.75V9.75H16.3125C16.8305 9.75 17.25 10.1695 17.25 10.6875C17.25 10.8117 17.2266 10.9336 17.1773 11.0484L15.375 15.375H8.625L6.82266 11.0484C6.77344 10.9336 6.75 10.8117 6.75 10.6875C6.75 10.1695 7.16953 9.75 7.6875 9.75H11.25V8.625H10.875C10.4602 8.625 10.125 8.28984 10.125 7.875C10.125 7.46016 10.4602 7.125 10.875 7.125H11.25V6.75C11.25 6.33516 11.5852 6 12 6ZM7.65469 17.0953L8.625 16.125H15.375L16.3453 17.0953C16.4437 17.1937 16.5 17.3297 16.5 17.4703C16.5 17.7633 16.2633 18 15.9703 18H8.02969C7.73672 18 7.5 17.7633 7.5 17.4703C7.5 17.3297 7.55625 17.1937 7.65469 17.0953Z" fill="black"/>
</g>
</g>
<defs>
<clipPath id="clip0_52_3434">
<rect width="24" height="24" fill="white"/>
</clipPath>
<clipPath id="clip1_52_3434">
<rect width="12" height="12" fill="white" transform="translate(6 6)"/>
</clipPath>
</defs>
</svg>
