<svg width="24" height="24" viewBox="0 0 24 24" fill="none" xmlns="http://www.w3.org/2000/svg">
<g clip-path="url(#clip0_52_3444)">
<path d="M13.3008 11.25C13.9852 10.8188 14.4375 10.057 14.4375 9.1875C14.4375 7.84219 13.3453 6.75 12 6.75C10.6547 6.75 9.5625 7.84219 9.5625 9.1875C9.5625 10.057 10.0172 10.8188 10.6992 11.25H10.5C10.0852 11.25 9.75 11.5852 9.75 12C9.75 12.3867 10.043 12.7031 10.418 12.7453L10.125 15.375H13.875L13.582 12.7453C13.957 12.7031 14.25 12.3867 14.25 12C14.25 11.5852 13.9148 11.25 13.5 11.25H13.3008ZM8.77969 17.0953C8.68125 17.1937 8.625 17.3297 8.625 17.4703C8.625 17.7633 8.86172 18 9.15469 18H14.8453C15.1383 18 15.375 17.7633 15.375 17.4703C15.375 17.3297 15.3187 17.1937 15.2203 17.0953L14.25 16.125H9.75L8.77969 17.0953Z" fill="black"/>
</g>
<defs>
<clipPath id="clip0_52_3444">
<rect width="24" height="24" fill="white"/>
</clipPath>
</defs>
</svg>
