<svg width="24" height="24" viewBox="0 0 24 24" fill="none" xmlns="http://www.w3.org/2000/svg">
<g clip-path="url(#clip0_52_3439)">
<g clip-path="url(#clip1_52_3439)">
<path d="M12.0001 6C12.3482 6 12.682 6.13828 12.9282 6.38442C13.1743 6.63056 13.3126 6.9644 13.3126 7.3125C13.3126 7.6606 13.1743 7.99444 12.9282 8.24058C12.682 8.48672 12.3482 8.625 12.0001 8.625C11.652 8.625 11.3182 8.48672 11.072 8.24058C10.8259 7.99444 10.6876 7.6606 10.6876 7.3125C10.6876 6.9644 10.8259 6.63056 11.072 6.38442C11.3182 6.13828 11.652 6 12.0001 6ZM9.14307 9.37031C9.22041 9.06563 9.49463 8.8125 9.85088 8.8125C10.1392 8.8125 10.3806 8.98125 10.5001 9.21094C10.7814 9.75469 11.3485 10.125 12.0001 10.125C12.6517 10.125 13.2189 9.75469 13.5001 9.21094C13.6196 8.98125 13.861 8.8125 14.1493 8.8125C14.5079 8.8125 14.7821 9.06563 14.8571 9.37031C15.0212 10.0219 15.6118 10.5023 16.3126 10.5023C16.5657 10.5023 16.8048 10.4391 17.011 10.3289C17.2079 10.2258 17.454 10.2234 17.6579 10.35C17.9626 10.5375 18.0587 10.9359 17.8735 11.2406L15.3681 15.375H8.63213L6.12666 11.2406C5.94151 10.9359 6.0376 10.5375 6.34229 10.35C6.5462 10.2258 6.79229 10.2258 6.98916 10.3289C7.19776 10.4391 7.43448 10.5023 7.6876 10.5023C8.38838 10.5023 8.97901 10.0219 9.14307 9.37031ZM8.6251 16.125H15.3751L16.3454 17.0953C16.4439 17.1937 16.5001 17.3297 16.5001 17.4703C16.5001 17.7633 16.2634 18 15.9704 18H8.02979C7.73682 18 7.5001 17.7633 7.5001 17.4703C7.5001 17.3297 7.55635 17.1937 7.65479 17.0953L8.6251 16.125Z" fill="black"/>
</g>
</g>
<defs>
<clipPath id="clip0_52_3439">
<rect width="24" height="24" fill="white"/>
</clipPath>
<clipPath id="clip1_52_3439">
<rect width="12" height="12" fill="white" transform="translate(6 6)"/>
</clipPath>
</defs>
</svg>
